<?xml version="1.0" encoding="utf-8"?>
<!-- Generator: Adobe Illustrator 24.0.3, SVG Export Plug-In . SVG Version: 6.00 Build 0)  -->
<!DOCTYPE svg PUBLIC "-//W3C//DTD SVG 1.1//EN" "http://www.w3.org/Graphics/SVG/1.1/DTD/svg11.dtd" [
	<!ENTITY ns_extend "http://ns.adobe.com/Extensibility/1.0/">
	<!ENTITY ns_ai "http://ns.adobe.com/AdobeIllustrator/10.0/">
	<!ENTITY ns_graphs "http://ns.adobe.com/Graphs/1.0/">
	<!ENTITY ns_vars "http://ns.adobe.com/Variables/1.0/">
	<!ENTITY ns_imrep "http://ns.adobe.com/ImageReplacement/1.0/">
	<!ENTITY ns_sfw "http://ns.adobe.com/SaveForWeb/1.0/">
	<!ENTITY ns_custom "http://ns.adobe.com/GenericCustomNamespace/1.0/">
	<!ENTITY ns_adobe_xpath "http://ns.adobe.com/XPath/1.0/">
]>
<svg version="1.1" id="svg5039" xmlns:x="&ns_extend;" xmlns:i="&ns_ai;" xmlns:graph="&ns_graphs;"
	 xmlns="http://www.w3.org/2000/svg" xmlns:xlink="http://www.w3.org/1999/xlink" x="0px" y="0px" viewBox="0 0 357.8 538.9"
	 style="enable-background:new 0 0 357.8 538.9;" xml:space="preserve">
<style type="text/css">
	.st0{fill:#600000;}
	.st1{fill:#0000FF;}
	.st2{fill:url(#path4292_1_);}
	.st3{fill:#FF0000;}
	.st4{fill-rule:evenodd;clip-rule:evenodd;fill:url(#path4639_1_);}
	.st5{opacity:0.73;fill-rule:evenodd;clip-rule:evenodd;fill:#FFEEAA;enable-background:new    ;}
	.st6{fill-rule:evenodd;clip-rule:evenodd;fill:url(#path4341_1_);}
	.st7{fill-rule:evenodd;clip-rule:evenodd;fill:#2E1A0D;}
	.st8{fill:none;stroke:#000000;stroke-width:8;stroke-miterlimit:3.2;}
	.st9{fill:none;stroke:#FFFFFF;stroke-width:8;stroke-miterlimit:3.2;}
</style>
<metadata>
	<sfw  xmlns="&ns_sfw;">
		<slices></slices>
		<sliceSourceBounds  bottomLeftOrigin="true" height="538.9" width="357.8" x="0" y="15.5"></sliceSourceBounds>
	</sfw>
</metadata>
<path id="path4634" class="st0" d="M203.4,214.4c-3,0-5.9,0.2-8.9,0.7c0.3,2.1,0.5,4.2,0.5,6.3c0,12.5-3.8,22.6-11.5,30.5
	c-6,6.1-13.9,10.1-22.4,11.2c0.1,1.1,0.1,2.3,0.3,3.3c0.3,1.5,0.6,2.9,0.9,4.3c0.4,1.4,0.8,2.7,1.3,4c0.5,1.3,1.1,2.6,1.7,3.8
	c1.3,2.5,2.8,4.8,4.5,6.9c0.9,1.1,1.8,2.1,2.8,3.1c1,1,2.1,1.9,3.2,2.8c1.1,0.9,2.3,1.7,3.4,2.4c1.2,0.7,2.4,1.4,3.7,2
	c1.3,0.6,2.6,1.2,3.9,1.6c1.4,0.5,2.8,0.9,4.2,1.3c1.4,0.4,2.9,0.7,4.4,0.9c3.2,0.5,6.4,0.8,9.6,0.7c2.9,0,5.7-0.2,8.6-0.7
	c1.3-0.2,2.7-0.5,4-0.9c2.5-0.7,5-1.7,7.4-2.9c1.2-0.6,2.3-1.3,3.4-2c1.1-0.7,2.2-1.5,3.2-2.4c1-0.9,2-1.8,3-2.8c1-1,1.9-2,2.7-3
	c1.7-2.1,3.1-4.4,4.3-6.8c0.6-1.2,1.1-2.4,1.6-3.7c0.5-1.3,0.9-2.6,1.3-3.9s0.6-2.7,0.9-4.1c0.5-2.9,0.7-5.9,0.7-8.9
	c0-3.1-0.2-6.2-0.8-9.3c-0.2-1.5-0.6-2.9-0.9-4.3c-0.4-1.4-0.8-2.7-1.3-4c-1-2.6-2.2-5.1-3.8-7.4c-0.8-1.2-1.6-2.3-2.4-3.4
	c-0.9-1.1-1.8-2.1-2.8-3.1c-1-1-2-2-3.1-2.9c-1.1-0.9-2.2-1.7-3.3-2.5c-2.3-1.5-4.7-2.8-7.3-3.8c-1.3-0.5-2.6-1-3.9-1.4
	c-1.4-0.4-2.7-0.7-4.1-1s-2.9-0.4-4.4-0.6S205,214.4,203.4,214.4z M203.4,361.8c-1.5,0-2.9,0.1-4.3,0.2c1.9,6.4,2.9,13,2.9,19.7
	c0,16.4-4.9,29.9-14.9,40.7c-8.8,9.4-18.6,14.6-29.3,15.6c0.3,1.1,0.6,2.2,1,3.2c1.9,5,4.5,9.8,7.8,14c1.1,1.4,2.3,2.8,3.5,4.1
	s2.5,2.5,3.9,3.7s2.6,2.2,4,3.2c1.3,1,2.7,1.9,4.1,2.7c2.7,1.6,5.6,2.9,8.6,3.9c1.5,0.5,3,0.9,4.5,1.2c1.5,0.3,3.1,0.6,4.7,0.7
	c1.6,0.2,3.2,0.2,4.8,0.2c1.5,0,3.1-0.1,4.6-0.2c1.5-0.2,3-0.4,4.5-0.8c1.5-0.3,2.9-0.7,4.4-1.2c1.4-0.5,2.9-1.1,4.2-1.7
	c1.4-0.7,2.8-1.4,4.1-2.2c1.3-0.8,2.7-1.7,4-2.7c1.3-1,2.6-2.1,3.9-3.2c1.3-1.1,2.5-2.4,3.8-3.7s2.4-2.7,3.5-4.2s2.1-2.9,3-4.4
	s1.8-3.1,2.6-4.7c0.8-1.6,1.5-3.3,2.1-5c0.6-1.7,1.2-3.4,1.6-5.2c0.5-1.8,0.9-3.6,1.2-5.5s0.5-3.8,0.7-5.8s0.2-4,0.2-6
	s-0.1-4.1-0.2-6.1s-0.4-3.9-0.7-5.8s-0.7-3.7-1.2-5.5s-1-3.5-1.6-5.2s-1.3-3.4-2.1-5c-0.8-1.6-1.7-3.2-2.6-4.7c-0.9-1.5-2-3-3.1-4.4
	c-1.1-1.4-2.3-2.8-3.5-4.1c-1.2-1.3-2.5-2.6-3.8-3.7s-2.6-2.2-3.9-3.2s-2.7-1.9-4.1-2.7c-1.4-0.8-2.8-1.6-4.2-2.2
	c-2.9-1.3-5.9-2.3-8.9-3c-1.6-0.3-3.1-0.6-4.7-0.7c-1.6-0.2-3.2-0.3-4.9-0.2L203.4,361.8z"/>
<path id="path4630" class="st1" d="M309.4,179.6c-3.1-2.4-6.3-4.7-9.6-6.7c-3.5-2.1-7.1-4.1-10.8-5.8c-3.8-1.8-7.8-3.4-12-4.9
	s-8.6-2.8-13.3-4c-4.6-1.2-9.5-2.2-14.5-3.1c-5-0.9-10.3-1.6-15.7-2.2c-5.4-0.6-11.1-1-17-1.4c-5.9-0.3-12-0.5-18.2-0.4
	c-4.7,0-9.3,0.1-13.9,0.4s-8.9,0.6-13.2,1.1c-4.3,0.5-8.4,1.1-12.5,1.8c-4,0.7-8,1.6-11.8,2.5c-3.8,1-7.5,2-11.1,3.2s-7,2.5-10.4,4
	s-6.6,3-9.7,4.7s-6.1,3.5-9,5.4c-3.7,2.5-7.1,5.1-10.4,7.8c-3.2,2.6-6.2,5.4-9,8.3c-2.7,2.8-5.3,5.7-7.6,8.8c-2.3,3-4.4,6.1-6.2,9.4
	c-1.8,3.2-3.5,6.5-4.8,9.9c-1.4,3.4-2.5,6.9-3.4,10.4c-0.9,3.6-1.6,7.3-2.1,11c-0.5,3.8-0.7,7.7-0.7,11.5c0,2.4,0.1,4.7,0.2,7.1
	c0.2,2.3,0.4,4.6,0.7,6.9c0.3,2.3,0.7,4.5,1.2,6.6s1,4.3,1.7,6.4s1.4,4.2,2.2,6.2s1.7,4,2.6,6s2,3.9,3.1,5.8s2.3,3.8,3.6,5.6
	c2,2.8,4.1,5.4,6.5,7.9c2.5,2.7,5.3,5.2,8.1,7.5c3.1,2.5,6.4,4.9,9.8,7.1c3.5,2.3,7.4,4.5,11.4,6.7c-2.7,1-5.2,2.1-7.7,3.3
	s-4.9,2.4-7.2,3.6s-4.6,2.6-6.7,4S88,344.6,86,346c-2,1.5-3.9,3-5.7,4.6s-3.5,3.2-5.1,4.9s-3.2,3.5-4.6,5.3s-2.8,3.7-4.1,5.6
	s-2.5,3.9-3.6,5.9s-2.2,4.1-3.1,6.2s-1.8,4.3-2.6,6.5s-1.5,4.5-2.2,6.8s-1.2,4.7-1.7,7.1s-0.9,4.9-1.2,7.5s-0.6,5.1-0.7,7.8
	s-0.2,5.4-0.2,8.1s0.1,5.6,0.3,8.3s0.4,5.5,0.8,8.1s0.8,5.3,1.3,8s1.1,5.2,1.8,7.7s1.5,5.1,2.3,7.5s1.8,4.9,2.8,7.4s2.1,4.8,3.3,7.1
	s2.5,4.7,3.8,7s2.8,4.5,4.3,6.6s3.1,4.2,4.8,6.2s3.4,3.9,5.3,5.8s3.6,3.5,5.5,5.2l9.1-9.6c16.6,3,36.2,4.6,58.8,4.6
	c20.1,0.1,40.1-2,59.6-6.4c18.8-4.1,34.4-10.6,46.8-19.5c12.6-8.9,23.2-21.4,31.7-37.6c8.7-16.2,13.2-34.4,13.1-52.8
	c0.2-18.8-5.1-37.3-15.1-53.2c-9.9-16-25-28.9-45.3-38.6c15.3-10.2,26.6-20.8,33.8-31.7c9.4-14,14.4-30.5,14.3-47.4
	c0-8.2-1-16.4-3.1-24.4L309.4,179.6z M152.3,177.7c12.5,0,22.7,4.1,30.7,12.3c6.6,6.6,10.4,15.1,11.5,25.1c2.9-0.5,5.9-0.7,8.9-0.7
	c1.6,0,3.1,0.1,4.6,0.2s2.9,0.3,4.4,0.6s2.8,0.6,4.1,1c1.3,0.4,2.7,0.8,3.9,1.4c2.6,1,5,2.3,7.3,3.8c1.2,0.8,2.3,1.6,3.3,2.5
	c1.1,0.9,2.1,1.9,3.1,2.9c1,1,1.9,2,2.8,3.1c0.9,1.1,1.7,2.2,2.4,3.4c1.5,2.3,2.8,4.8,3.8,7.4c0.5,1.3,0.9,2.6,1.3,4
	c0.4,1.4,0.7,2.8,0.9,4.3c0.5,3.1,0.8,6.2,0.8,9.3c0,3-0.2,6-0.7,8.9c-0.2,1.4-0.5,2.8-0.9,4.1s-0.8,2.6-1.3,3.9
	c-0.9,2.5-2.1,4.9-3.6,7.2c-0.7,1.1-1.5,2.2-2.3,3.3c-0.8,1.1-1.7,2.1-2.7,3c-1,1-2,1.9-3,2.8c-1,0.9-2.1,1.6-3.2,2.4
	c-1.1,0.7-2.2,1.4-3.4,2c-2.3,1.2-4.8,2.2-7.4,2.9c-1.3,0.4-2.7,0.7-4,0.9c-2.8,0.5-5.7,0.7-8.6,0.7c-3.2,0-6.4-0.2-9.6-0.7
	c-1.5-0.2-3-0.5-4.4-0.9c-1.4-0.4-2.8-0.8-4.2-1.3c-1.4-0.5-2.7-1-3.9-1.6c-1.3-0.6-2.5-1.3-3.7-2c-1.2-0.7-2.3-1.5-3.4-2.4
	c-1.1-0.9-2.2-1.8-3.2-2.8c-1-1-1.9-2-2.8-3.1c-1.7-2.2-3.3-4.5-4.5-6.9c-0.6-1.2-1.2-2.5-1.7-3.8s-0.9-2.7-1.3-4s-0.7-2.8-0.9-4.3
	c-0.2-1-0.2-2.2-0.3-3.3c-2.3,0.4-4.7,0.6-7.1,0.6c-13.5,0-24.3-3.9-32.5-11.8c-8-8-12-18.5-12-31.5c0-12.6,3.9-22.9,11.8-30.7
	C129.3,181.7,139.7,177.7,152.3,177.7z M152.3,325.1c13.1,0,24.7,5.3,34.6,15.9c5.7,6,9.9,13.1,12.3,21c1.4-0.1,2.8-0.2,4.3-0.2
	c1.6,0,3.2,0.1,4.9,0.2c1.6,0.2,3.1,0.4,4.7,0.7c3.1,0.7,6.1,1.7,8.9,3c1.5,0.7,2.9,1.4,4.2,2.2c1.4,0.8,2.8,1.7,4.1,2.7
	s2.6,2.1,3.9,3.2s2.6,2.4,3.8,3.7c1.2,1.3,2.4,2.7,3.5,4.1c1.1,1.4,2.1,2.9,3.1,4.4c0.9,1.5,1.8,3.1,2.6,4.7c0.8,1.6,1.5,3.3,2.1,5
	c0.6,1.7,1.2,3.4,1.6,5.2s0.9,3.6,1.2,5.5s0.6,3.8,0.7,5.8s0.2,4,0.2,6.1s-0.1,4-0.2,6s-0.4,3.9-0.7,5.8s-0.7,3.7-1.2,5.5
	s-1,3.5-1.6,5.2c-0.6,1.7-1.3,3.4-2.1,5c-0.8,1.6-1.6,3.2-2.6,4.7c-0.9,1.5-1.9,3-3,4.4c-1.1,1.4-2.2,2.8-3.5,4.2
	c-1.2,1.3-2.5,2.6-3.8,3.7s-2.6,2.2-3.9,3.2s-2.7,1.9-4,2.7c-1.3,0.8-2.7,1.6-4.1,2.2c-1.4,0.7-2.8,1.2-4.2,1.7
	c-1.4,0.5-2.9,0.9-4.4,1.2c-1.5,0.3-3,0.6-4.5,0.8c-1.5,0.2-3.1,0.2-4.6,0.2c-1.6,0-3.2-0.1-4.8-0.2c-1.6-0.2-3.1-0.4-4.7-0.7
	c-1.5-0.3-3-0.7-4.5-1.2c-3-1-5.9-2.3-8.6-3.9c-1.4-0.8-2.8-1.7-4.1-2.7c-1.3-1-2.7-2-4-3.2c-1.3-1.1-2.6-2.4-3.9-3.7
	c-1.2-1.3-2.4-2.7-3.5-4.1c-3.3-4.2-5.9-9-7.8-14c-0.4-1-0.7-2.1-1-3.2c-1.4,0.1-2.8,0.2-4.2,0.2c-13,0-24.5-5.2-34.6-15.6
	c-10.1-10.6-15.1-24.1-15.1-40.7c0-17.4,4.8-31.2,14.3-41.5C128,330.3,139.3,325.2,152.3,325.1L152.3,325.1z"/>
<linearGradient id="path4292_1_" gradientUnits="userSpaceOnUse" x1="2225.6729" y1="561.4647" x2="2303.603" y2="474.5847" gradientTransform="matrix(0.8 0 0 0.8 -1718.28 -43.412)">
	<stop  offset="0" style="stop-color:#600000"/>
	<stop  offset="0.64" style="stop-color:#FF8080"/>
	<stop  offset="1" style="stop-color:#600000"/>
</linearGradient>
<path id="path4292" class="st2" d="M62.7,294.1c-21.3,8.4-37.1,20.2-47.3,35.6C5.1,344.9,0,363.5,0,385.5c0,22.5,5.5,42.9,16.4,61.2
	c5.3,8.9,12,16.9,19.9,23.8l0,0h0c4.9,4.3,10.2,8.1,15.8,11.4l35.3,25.4l0,0c-1.9-1.7-3.8-3.4-5.5-5.2s-3.6-3.8-5.3-5.8
	s-3.3-4.1-4.8-6.2s-3-4.4-4.3-6.6s-2.7-4.6-3.8-6.9s-2.3-4.7-3.3-7.1s-2-4.9-2.8-7.4s-1.6-5-2.3-7.5s-1.3-5.1-1.8-7.8
	s-0.9-5.3-1.3-8s-0.6-5.4-0.8-8.1s-0.3-5.5-0.3-8.4s0.1-5.5,0.2-8.1s0.4-5.2,0.7-7.8s0.7-5,1.2-7.5s1-4.8,1.7-7.1s1.4-4.6,2.2-6.8
	s1.7-4.4,2.6-6.5s2-4.2,3.1-6.2s2.3-4,3.6-5.9s2.7-3.8,4.1-5.6s3-3.6,4.6-5.3s3.3-3.4,5.1-4.9s3.7-3,5.7-4.5s4-2.9,6.2-4.3
	s4.4-2.7,6.7-4s4.7-2.5,7.2-3.6s5.1-2.3,7.7-3.3c-4.1-2.2-7.9-4.4-11.4-6.7c-3.4-2.2-6.7-4.6-9.8-7.1c-2.6-2.1-5.1-4.4-7.4-6.7
	L62.7,294.1z"/>
<path id="path5028" class="st3" d="M113.8,330.8c-16.4-8.7-28.3-18.4-35.8-29.2C67.8,287,62.6,270.1,62.6,251
	c0-31.4,14.8-57.1,44.3-77c23-15.3,53.5-23,91.4-23c50.2,0,87.2,9.6,111.1,28.7c24.1,19.1,36.1,43.2,36.1,72.2
	c0,16.9-5,33.3-14.3,47.4c-7.2,10.9-18.4,21.5-33.8,31.7c20.3,9.7,35.4,22.6,45.3,38.6c10,15.9,15.3,34.4,15.1,53.2
	c0.1,18.4-4.4,36.5-13,52.7c-8.5,16.2-19.1,28.7-31.7,37.5c-12.5,8.9-28.1,15.4-46.8,19.5c-19.6,4.4-39.6,6.5-59.6,6.4
	c-39.8,0-70.1-4.7-91.1-14.1c-21-9.4-37-23.2-47.9-41.5c-10.9-18.3-16.4-38.7-16.4-61.2c0-22,5.1-40.6,15.4-55.8
	C76.7,351.1,92.5,339.2,113.8,330.8L113.8,330.8z M160.7,257.1c0,13,4,23.5,12,31.5c8.2,7.9,19.1,11.8,32.5,11.8
	c12,0,21.8-3.9,29.4-11.8c7.7-7.9,11.5-18,11.5-30.5c0-13-4-23.5-12-31.5c-8-8.2-18.2-12.3-30.7-12.3c-12.6,0-23,4-31,12
	C164.6,234.2,160.7,244.5,160.7,257.1L160.7,257.1z M155,418.6c0,16.6,5,30.1,15.1,40.7c10.1,10.4,21.6,15.6,34.6,15.6
	c12.5,0,23.6-5.3,33.5-15.9c9.9-10.7,14.8-24.3,14.9-40.7c0-16.6-5-30.1-15.1-40.7c-9.9-10.6-21.4-15.9-34.6-15.9
	c-13,0-24.3,5.1-34,15.4C159.8,387.4,155,401.2,155,418.6z"/>
<linearGradient id="path4639_1_" gradientUnits="userSpaceOnUse" x1="2308.2583" y1="316.7281" x2="2362.4883" y2="263.6981" gradientTransform="matrix(0.8 0 0 0.8 -1718.28 -43.412)">
	<stop  offset="0" style="stop-color:#600000"/>
	<stop  offset="1" style="stop-color:#FF8080"/>
</linearGradient>
<path id="path4639" class="st4" d="M147.2,114.2c-37.9,0-68.3,7.7-91.4,23c-29.5,20-44.3,45.6-44.3,77c0,19.1,5.1,36,15.4,50.7
	c7.5,10.8,19.4,20.5,35.8,29.2l22.5,16.1l-0.7-0.8c-2.3-2.4-4.5-5-6.5-7.8c-1.3-1.8-2.5-3.7-3.6-5.6c-1.1-1.9-2.2-3.8-3.1-5.8
	c-1-2-1.8-4-2.6-6s-1.5-4.1-2.2-6.2c-0.7-2.1-1.2-4.3-1.7-6.4c-0.5-2.2-0.9-4.4-1.2-6.6s-0.6-4.5-0.7-6.9s-0.2-4.7-0.2-7.1
	c0-3.8,0.2-7.7,0.7-11.5c0.4-3.7,1.1-7.4,2.1-11c0.9-3.6,2.1-7,3.5-10.4c1.4-3.4,3-6.7,4.8-9.9c1.9-3.3,4-6.4,6.2-9.4
	c2.4-3.1,4.9-6,7.6-8.8c2.8-2.9,5.8-5.7,9-8.3c3.2-2.7,6.7-5.3,10.4-7.8c2.9-1.9,5.9-3.7,9-5.4s6.3-3.2,9.7-4.7s6.8-2.8,10.4-4
	c3.6-1.2,7.3-2.3,11.1-3.2s7.7-1.8,11.8-2.5s8.2-1.3,12.5-1.8s8.7-0.8,13.2-1.1s9.1-0.4,13.9-0.4c6.3,0,12.3,0.1,18.2,0.4
	c5.9,0.3,11.5,0.8,17,1.4c5.5,0.6,10.7,1.3,15.7,2.2s9.9,1.9,14.5,3.1c4.6,1.2,9.1,2.5,13.3,4c4.2,1.5,8.2,3.1,12,5
	c3.7,1.7,7.3,3.7,10.8,5.8l1.1,0.7l-39.4-28c-1.1-0.9-2.1-1.8-3.2-2.7c-3.8-3-7.9-5.8-12.1-8.2l0,0
	C222.5,121,189.5,114.2,147.2,114.2L147.2,114.2z M300.9,173.6l8.4,6C306.7,177.4,303.9,175.4,300.9,173.6L300.9,173.6z"/>
<path id="path4337" class="st5" d="M220.2,134.1c0.1,2.8-7.2,7.4-37.8,8.6s-41.7-5.7-41.8-8.5s2-13.9,32.6-15.1
	S220.1,131.3,220.2,134.1z"/>
<g id="g4339">
	
		<radialGradient id="path4341_1_" cx="804.7042" cy="1248.557" r="9.05" gradientTransform="matrix(1.53 0 0 6.24 -1052.83 -7675.5635)" gradientUnits="userSpaceOnUse">
		<stop  offset="0" style="stop-color:#0000FF"/>
		<stop  offset="1" style="stop-color:#FFFF00"/>
	</radialGradient>
	<path id="path4341" class="st6" d="M167.3,109.6c-5.6-36.3-3.8-71.9,11.3-109.6c14.3,9.4,10.9,67.6,7,109.6
		c-2.5-7.4-1.6-8.1-9.2-13C171.2,94.9,171.8,96.2,167.3,109.6z"/>
	<path id="path4343" class="st7" d="M173.3,129.7c3.9-8.4,5.4-14.4,3.5-17c-3.2-3.4-5.2,1.2-7.4,3.8c-4-0.5-5-2.9-1.9-8
		c5-7.2,10.1-8.7,15.1-10.3c1.8,7.6,3.8,14.7,0.6,31.2L173.3,129.7z"/>
</g>
<path id="path4689" class="st8" d="M189,168.6c-34,0.2-70,9.6-94.6,34.5c-22.1,23-27.8,60.2-11.3,87.8c8.8,15.4,23.7,26,39.5,33.2
	c8.8,4.6,17.8,9.1,26.6,13.8c-23,4.4-46.1,11.7-63.6,27.8c-16.5,14.9-23.2,37.4-23.5,58.9c-0.4,30.8,13.1,62.6,38.7,80.7
	c25.2,18,57.4,21,87.4,22.2c32.5,0.8,65.6-1.2,96-13.4c23.2-10.1,41.2-29.4,49.6-53.2c11-29.5,7.8-65.1-13.2-89.5
	c-15.2-17.7-37.3-27.6-58.9-35c24.6-12.5,50.4-28.8,61.3-55.6c14.5-35.2-4.4-78.9-38.6-94.8C255.4,170.2,221.4,168.5,189,168.6
	L189,168.6z M202.6,203c31.3-0.1,58.3,30.5,54.9,61.5c-0.8,24.8-19.4,48.8-44.5,52.5c-25.7,5.3-55.5-7.5-65.5-32.6
	c-11.6-26.5-1.4-62.2,25.4-75.2C182.1,204.7,192.5,203,202.6,203L202.6,203z M199.6,350.6c34.9-0.5,64.4,32.1,64.7,66.2
	c2.3,30.3-15.4,63-45,72.9c-28.1,9.5-61.1-5.8-73.5-32.4c-16.2-30.8-9.6-73.4,18.7-94.9C174.7,354.8,187,350.7,199.6,350.6
	L199.6,350.6z"/>
<path id="path4669" class="st9" d="M192.2,165.4c-34,0.2-70,9.6-94.6,34.5c-22.1,23-27.8,60.2-11.3,87.8c8.8,15.4,23.7,26,39.5,33.2
	c8.8,4.6,17.8,9.1,26.6,13.8c-23,4.4-46.1,11.7-63.6,27.8c-16.5,14.9-23.2,37.4-23.5,58.9c-0.4,30.8,13.1,62.6,38.7,80.7
	c25.2,18,57.4,21,87.4,22.2c32.5,0.8,65.6-1.2,96-13.4c23.2-10.1,41.2-29.4,49.6-53.2c11-29.5,7.8-65.1-13.2-89.5
	c-15.2-17.7-37.3-27.6-58.9-35c24.6-12.5,50.4-28.8,61.3-55.6c14.5-35.2-4.4-78.9-38.6-94.8C258.6,167,224.6,165.3,192.2,165.4
	L192.2,165.4z M205.8,199.9c31.3-0.1,58.3,30.5,54.9,61.5c-0.8,24.8-19.4,48.8-44.5,52.5c-25.7,5.3-55.5-7.5-65.5-32.6
	c-11.6-26.5-1.4-62.2,25.4-75.2C185.3,201.5,195.7,199.8,205.8,199.9L205.8,199.9z M202.8,347.4c34.9-0.5,64.4,32.1,64.7,66.2
	c2.3,30.3-15.4,63-45,72.9c-28,9.5-61.1-5.8-73.5-32.4c-16.2-30.8-9.6-73.4,18.7-94.9C177.9,351.6,190.2,347.5,202.8,347.4
	L202.8,347.4z"/>
</svg>
