<svg id="svg5039" xmlns="http://www.w3.org/2000/svg" xmlns:xlink="http://www.w3.org/1999/xlink" viewBox="0 0 363.9 531.74"><defs><style>.cls-1{fill:url(#Безымянный_градиент_14);}.cls-2{fill:red;}.cls-3,.cls-4{fill:none;stroke-miterlimit:3.2;stroke-width:8px;}.cls-3{stroke:#000;}.cls-4{stroke:#fff;}.cls-5{fill:#fea;isolation:isolate;opacity:0.73;}.cls-5,.cls-6,.cls-7{fill-rule:evenodd;}.cls-6{fill:url(#Безымянный_градиент_15);}.cls-7{fill:#2e1a0d;}</style><linearGradient id="Безымянный_градиент_14" x1="-1318.42" y1="1623.65" x2="-1316.1" y2="1777.8" gradientTransform="matrix(0.8, 0, 0, -0.8, 1239.95, 1552.94)" gradientUnits="userSpaceOnUse"><stop offset="0" stop-color="#600000"/><stop offset="1" stop-color="#ff8080"/></linearGradient><radialGradient id="Безымянный_градиент_15" cx="848.65" cy="590.96" r="9.05" gradientTransform="matrix(1.53, 0, 0, -6.24, -1124.58, 3797.53)" gradientUnits="userSpaceOnUse"><stop offset="0" stop-color="blue"/><stop offset="1" stop-color="#ff0"/></radialGradient></defs><g id="layer1-56"><g id="g4870"><path id="path4280" class="cls-1" d="M159,113.4q-52.72,0-82.67,13.31-29.7,13-46.08,37.88-16.38,24.57-22.52,68.6l51.11,36.7L79.48,239l32.63,2.64q4.35-31.74,16.89-44.28,12.81-12.54,32.77-12.54,19.2,0,31.74,12.28,12.8,12,12.8,29.18,0,15.87-12.8,33.53t-58.62,51.71Q59.89,367.07,32.51,408,5.38,448.72,0,495l51.11,36.7L104.93,495H312.79V466.48l51.11-19.72-51.11-36.7H150q14.34-14.07,24.83-22.78,10.76-8.7,42.24-30.46,53-37.36,72.95-68.6Q310.23,257,310.23,222.7A102.28,102.28,0,0,0,301.69,181l16.63-5.89-43.43-30.63A103.55,103.55,0,0,0,258,132.51l-.12-.08h0a116.33,116.33,0,0,0-13.41-6.5Q214,113.4,159,113.4Z"/><path id="path5016" class="cls-2" d="M363.9,531.74H51.11q5.37-46.33,32.51-87Q111,403.76,186,348.21q45.83-34,58.62-51.7T257.42,263q0-17.16-12.8-29.18-12.54-12.3-31.74-12.29-20,0-32.76,12.54-12.56,12.54-16.9,44.28L58.79,269.89q6.14-44,22.52-68.6,16.39-24.82,46.08-37.88,29.94-13.32,82.67-13.31,55,0,85.5,12.54,30.7,12.54,48.12,38.65,17.65,25.85,17.66,58.1,0,34.31-20.22,65.53-20,31.23-72.95,68.6Q236.69,415.27,225.93,424q-10.49,8.7-24.83,22.78H363.9Z"/><path id="path4269" class="cls-3" d="M200.7,167.76c-32.32.37-67.1,4.67-93.31,25.56-20.14,16.33-30.65,41.79-35,66.68,25.26,1.71,50.41,4.57,75.67,5.9,3.9-20.63,15.32-41.84,35.49-50.4,28.67-13.38,67.95-1,80.61,28.85,9.83,22.47,2.09,49.27-13.77,67-23.31,28.28-55.46,47-83.21,70.32-39,30.56-77.66,65.85-95,113.47a179.8,179.8,0,0,0-7.32,25.44H346.3V464.36H165.18c31-39.76,74.21-67,114.34-96.48,26.83-21,52.59-47.19,61.36-81.15,8.59-33.51-2.19-72.45-30.16-93.71-23.86-19-55.22-24-84.87-24.88C217.49,167.79,209.09,167.73,200.7,167.76Z"/><path id="path4249" class="cls-4" d="M203.9,164.56c-32.32.37-67.1,4.67-93.31,25.56-20.14,16.33-30.65,41.79-35,66.68,25.26,1.71,50.41,4.57,75.67,5.9,3.9-20.63,15.32-41.84,35.49-50.4,28.67-13.38,67.95-1,80.61,28.85,9.83,22.47,2.09,49.27-13.77,67-23.31,28.28-55.46,47-83.21,70.32-39,30.56-77.66,65.85-95,113.47a179.8,179.8,0,0,0-7.32,25.44H349.5V461.16H168.38c31-39.76,74.21-67,114.34-96.48,26.83-21,52.59-47.19,61.36-81.15,8.59-33.51-2.19-72.45-30.16-93.71-23.86-19-55.22-24-84.87-24.88C220.69,164.59,212.29,164.53,203.9,164.56Z"/><path id="path4276" class="cls-5" d="M215.65,134.09c.11,2.82-7.21,7.37-37.76,8.57s-41.66-5.69-41.77-8.5,2-13.88,32.58-15.07,46.84,12.19,47,15Z"/><g id="g4278"><path id="path4281" class="cls-6" d="M162.78,109.6C157.15,73.31,159,37.72,174.12,0c14.26,9.45,10.85,67.56,7,109.6-2.48-7.42-1.63-8.14-9.23-13C166.68,94.88,167.3,96.22,162.78,109.6Z"/><path id="path4283" class="cls-7" d="M168.83,129.72c3.91-8.41,5.4-14.4,3.53-17-3.23-3.37-5.15,1.18-7.38,3.85-4-.47-5-2.86-1.93-8,5-7.24,10.06-8.66,15.09-10.28,1.79,7.58,3.85,14.65.65,31.16Z"/></g></g></g></svg>